<svg xmlns="http://www.w3.org/2000/svg" viewBox="0 0 560 800" width="560" height="800">
  <defs>
    
  <filter id="grain" x="0" y="0" width="100%" height="100%">
    <feTurbulence type="fractalNoise" baseFrequency="0.85" numOctaves="2"></feTurbulence>
    <feColorMatrix values="0 0 0 0 0.1  0 0 0 0 0.08  0 0 0 0 0.05  0 0 0 0.35 0"></feColorMatrix>
  </filter>
    
  <radialGradient id="vg" cx="50%" cy="50%" r="65%">
    <stop offset="30%" stop-color="black" stop-opacity="0"></stop>
    <stop offset="100%" stop-color="black" stop-opacity="0.5"></stop>
  </radialGradient>
    <linearGradient id="bg" x1="0" y1="0" x2="0.26" y2="1">
      <stop offset="0%" stop-color="#3a2818"></stop><stop offset="100%" stop-color="#1a1208"></stop>
    </linearGradient>
    <linearGradient id="lblFade" x1="0" y1="1" x2="0" y2="0">
      <stop offset="0%" stop-color="black" stop-opacity="0.85"></stop>
      <stop offset="100%" stop-color="black" stop-opacity="0"></stop>
    </linearGradient>
    <radialGradient id="innerShadow" cx="50%" cy="50%" r="50%">
      <stop offset="60%" stop-color="black" stop-opacity="0"></stop>
      <stop offset="100%" stop-color="black" stop-opacity="0.45"></stop>
    </radialGradient>
  </defs>
  <rect width="560" height="800" fill="url(#bg)"></rect>
  <g transform="scale(2 2.1052631578947367)">
  <rect x="0" y="0" width="280" height="380" fill="#1f1610"></rect>
  <path d="M100 380 V 180 Q 100 130 140 130 Q 180 130 180 180 V 380 Z" fill="#0a0604" stroke="#5a4028" stroke-width="1.5"></path>
  <circle cx="170" cy="260" r="3" fill="#c9a14a"></circle>
  <rect x="200" y="290" width="50" height="6" fill="#3a2818"></rect>
  <rect x="218" y="270" width="6" height="20" fill="#e6ca85"></rect>
  <ellipse cx="221" cy="265" rx="3" ry="6" fill="#e6ca85"></ellipse>
  <ellipse cx="221" cy="265" rx="20" ry="40" fill="#e6ca85" opacity="0.15"></ellipse></g>
  <rect width="560" height="800" fill="url(#vg)"></rect>
  <rect width="560" height="800" filter="url(#grain)" opacity="0.6" style="mix-blend-mode:multiply"></rect>
  <rect width="560" height="800" fill="url(#innerShadow)"></rect>
  
  <rect x="0" y="600" width="560" height="200" fill="url(#lblFade)"></rect>
  <text x="44" y="690" font-family="Special Elite, monospace" font-size="14" letter-spacing="5.6" fill="#f4ecd8" fill-opacity="0.7">TUTORIAL · 5 MIN</text>
  <text x="44" y="740" font-family="EB Garamond, Georgia, serif" font-size="44" font-style="italic" fill="#f4ecd8" letter-spacing="-0.5">The Training Room</text>
  <text x="44" y="770" font-family="Special Elite, monospace" font-size="14" fill="#f4ecd8" fill-opacity="0.7">every choice changes the story</text>
  <rect x="0.5" y="0.5" width="559" height="799" fill="none" stroke="#1f1c16" stroke-width="1"></rect>
</svg>