<svg xmlns="http://www.w3.org/2000/svg" viewBox="0 0 560 800" width="560" height="800">
  <defs>
    
  <filter id="grain" x="0" y="0" width="100%" height="100%">
    <feTurbulence type="fractalNoise" baseFrequency="0.85" numOctaves="2"></feTurbulence>
    <feColorMatrix values="0 0 0 0 0.1  0 0 0 0 0.08  0 0 0 0 0.05  0 0 0 0.35 0"></feColorMatrix>
  </filter>
    
  <radialGradient id="vg" cx="50%" cy="50%" r="65%">
    <stop offset="30%" stop-color="black" stop-opacity="0"></stop>
    <stop offset="100%" stop-color="black" stop-opacity="0.5"></stop>
  </radialGradient>
    <linearGradient id="bg" x1="0" y1="0" x2="0" y2="1">
      <stop offset="0%" stop-color="#6a5848"></stop><stop offset="60%" stop-color="#3a2e22"></stop><stop offset="100%" stop-color="#14100c"></stop>
    </linearGradient>
    <linearGradient id="lblFade" x1="0" y1="1" x2="0" y2="0">
      <stop offset="0%" stop-color="black" stop-opacity="0.85"></stop>
      <stop offset="100%" stop-color="black" stop-opacity="0"></stop>
    </linearGradient>
    <radialGradient id="innerShadow" cx="50%" cy="50%" r="50%">
      <stop offset="60%" stop-color="black" stop-opacity="0"></stop>
      <stop offset="100%" stop-color="black" stop-opacity="0.45"></stop>
    </radialGradient>
  </defs>
  <rect width="560" height="800" fill="url(#bg)"></rect>
  <g transform="scale(2 2.1052631578947367)">
  <path d="M0 280 L 40 220 L 80 250 L 130 180 L 180 240 L 220 200 L 280 250 V 380 H 0 Z" fill="#1a1410" opacity="0.85"></path>
  <path d="M0 320 L 60 280 L 110 300 L 160 270 L 220 295 L 280 280 V 380 H 0 Z" fill="#0a0805"></path>
  <circle cx="0" cy="0" r="0.8" fill="#d8c8b8" opacity="0.3"></circle><circle cx="37" cy="53" r="1.2000000000000002" fill="#d8c8b8" opacity="0.44999999999999996"></circle><circle cx="74" cy="106" r="1.6" fill="#d8c8b8" opacity="0.6"></circle><circle cx="111" cy="159" r="0.8" fill="#d8c8b8" opacity="0.3"></circle><circle cx="148" cy="212" r="1.2000000000000002" fill="#d8c8b8" opacity="0.44999999999999996"></circle><circle cx="185" cy="265" r="1.6" fill="#d8c8b8" opacity="0.6"></circle><circle cx="222" cy="38" r="0.8" fill="#d8c8b8" opacity="0.3"></circle><circle cx="259" cy="91" r="1.2000000000000002" fill="#d8c8b8" opacity="0.44999999999999996"></circle><circle cx="16" cy="144" r="1.6" fill="#d8c8b8" opacity="0.6"></circle><circle cx="53" cy="197" r="0.8" fill="#d8c8b8" opacity="0.3"></circle><circle cx="90" cy="250" r="1.2000000000000002" fill="#d8c8b8" opacity="0.44999999999999996"></circle><circle cx="127" cy="23" r="1.6" fill="#d8c8b8" opacity="0.6"></circle><circle cx="164" cy="76" r="0.8" fill="#d8c8b8" opacity="0.3"></circle><circle cx="201" cy="129" r="1.2000000000000002" fill="#d8c8b8" opacity="0.44999999999999996"></circle><circle cx="238" cy="182" r="1.6" fill="#d8c8b8" opacity="0.6"></circle><circle cx="275" cy="235" r="0.8" fill="#d8c8b8" opacity="0.3"></circle><circle cx="32" cy="8" r="1.2000000000000002" fill="#d8c8b8" opacity="0.44999999999999996"></circle><circle cx="69" cy="61" r="1.6" fill="#d8c8b8" opacity="0.6"></circle><circle cx="106" cy="114" r="0.8" fill="#d8c8b8" opacity="0.3"></circle><circle cx="143" cy="167" r="1.2000000000000002" fill="#d8c8b8" opacity="0.44999999999999996"></circle><circle cx="180" cy="220" r="1.6" fill="#d8c8b8" opacity="0.6"></circle><circle cx="217" cy="273" r="0.8" fill="#d8c8b8" opacity="0.3"></circle><circle cx="254" cy="46" r="1.2000000000000002" fill="#d8c8b8" opacity="0.44999999999999996"></circle><circle cx="11" cy="99" r="1.6" fill="#d8c8b8" opacity="0.6"></circle><circle cx="48" cy="152" r="0.8" fill="#d8c8b8" opacity="0.3"></circle><circle cx="85" cy="205" r="1.2000000000000002" fill="#d8c8b8" opacity="0.44999999999999996"></circle><circle cx="122" cy="258" r="1.6" fill="#d8c8b8" opacity="0.6"></circle><circle cx="159" cy="31" r="0.8" fill="#d8c8b8" opacity="0.3"></circle><circle cx="196" cy="84" r="1.2000000000000002" fill="#d8c8b8" opacity="0.44999999999999996"></circle><circle cx="233" cy="137" r="1.6" fill="#d8c8b8" opacity="0.6"></circle><circle cx="270" cy="190" r="0.8" fill="#d8c8b8" opacity="0.3"></circle><circle cx="27" cy="243" r="1.2000000000000002" fill="#d8c8b8" opacity="0.44999999999999996"></circle><circle cx="64" cy="16" r="1.6" fill="#d8c8b8" opacity="0.6"></circle><circle cx="101" cy="69" r="0.8" fill="#d8c8b8" opacity="0.3"></circle><circle cx="138" cy="122" r="1.2000000000000002" fill="#d8c8b8" opacity="0.44999999999999996"></circle><circle cx="175" cy="175" r="1.6" fill="#d8c8b8" opacity="0.6"></circle><circle cx="212" cy="228" r="0.8" fill="#d8c8b8" opacity="0.3"></circle><circle cx="249" cy="1" r="1.2000000000000002" fill="#d8c8b8" opacity="0.44999999999999996"></circle><circle cx="6" cy="54" r="1.6" fill="#d8c8b8" opacity="0.6"></circle><circle cx="43" cy="107" r="0.8" fill="#d8c8b8" opacity="0.3"></circle>
  <path d="M138 290 l 0 -22 l -3 -4 l 0 -8 l 3 -2 l 4 0 l 3 2 l 0 8 l -3 4 l 0 22 z" fill="#0a0604"></path></g>
  <rect width="560" height="800" fill="url(#vg)"></rect>
  <rect width="560" height="800" filter="url(#grain)" opacity="0.6" style="mix-blend-mode:multiply"></rect>
  <rect width="560" height="800" fill="url(#innerShadow)"></rect>
  
  <rect x="0" y="600" width="560" height="200" fill="url(#lblFade)"></rect>
  <text x="44" y="690" font-family="Special Elite, monospace" font-size="14" letter-spacing="5.6" fill="#f4ecd8" fill-opacity="0.7">SURVIVAL · HARD</text>
  <text x="44" y="740" font-family="EB Garamond, Georgia, serif" font-size="44" font-style="italic" fill="#f4ecd8" letter-spacing="-0.5">Ashfall</text>
  <text x="44" y="770" font-family="Special Elite, monospace" font-size="14" fill="#f4ecd8" fill-opacity="0.7">the sky has been grey for a year</text>
  <rect x="0.5" y="0.5" width="559" height="799" fill="none" stroke="#1f1c16" stroke-width="1"></rect>
</svg>